<svg xmlns="http://www.w3.org/2000/svg" xmlns:xlink="http://www.w3.org/1999/xlink" width="100" zoomAndPan="magnify" viewBox="0 0 75 74.999997" height="100" preserveAspectRatio="xMidYMid meet" version="1.0"><defs><clipPath id="38b20e0377"><path d="M 1.074219 9 L 26 9 L 26 68 L 1.074219 68 Z M 1.074219 9 " clip-rule="nonzero"/></clipPath><clipPath id="2323e29888"><path d="M 1.074219 9 L 73.824219 9 L 73.824219 53 L 1.074219 53 Z M 1.074219 9 " clip-rule="nonzero"/></clipPath><clipPath id="fd98fed091"><path d="M 48 9 L 73.824219 9 L 73.824219 68 L 48 68 Z M 48 9 " clip-rule="nonzero"/></clipPath></defs><rect x="-7.5" width="90" fill="#ffffff" y="-7.5" height="89.999996" fill-opacity="1"/><rect x="-7.5" width="90" fill="#ffffff" y="-7.5" height="89.999996" fill-opacity="1"/><g clip-path="url(#38b20e0377)"><path stroke-linecap="round" transform="matrix(5.429104, 0, 0, 5.423699, -1.097501, -0.270096)" fill="none" stroke-linejoin="round" d="M 1.742605 12.003271 L 4.39253 12.003271 L 4.39253 3.088402 L 3.581651 2.568404 C 2.405985 1.815776 0.859057 2.656271 0.859057 4.049174 L 0.859057 11.123164 C 0.859057 11.609311 1.254783 12.003271 1.742605 12.003271 Z M 1.742605 12.003271 " stroke="#ffffff" stroke-width="1" stroke-opacity="1" stroke-miterlimit="4"/></g><g clip-path="url(#2323e29888)"><path stroke-linecap="round" transform="matrix(5.429104, 0, 0, 5.423699, -1.097501, -0.270096)" fill="none" stroke-linejoin="round" d="M 0.859057 4.049174 L 0.859057 5.226012 L 4.39253 7.488939 L 7.043174 9.186495 L 9.693099 7.488939 L 13.226572 5.226012 L 13.226572 4.049174 C 13.226572 2.656271 11.680363 1.815776 10.504697 2.568404 L 9.693099 3.088402 L 7.043174 4.785958 L 4.39253 3.088402 L 3.581651 2.568404 C 2.405985 1.815776 0.859057 2.656271 0.859057 4.049174 Z M 0.859057 4.049174 " stroke="#ffffff" stroke-width="1" stroke-opacity="1" stroke-miterlimit="4"/></g><g clip-path="url(#fd98fed091)"><path stroke-linecap="round" transform="matrix(5.429104, 0, 0, 5.423699, -1.097501, -0.270096)" fill="none" stroke-linejoin="round" d="M 9.693099 12.003271 L 12.343024 12.003271 C 12.830846 12.003271 13.226572 11.609311 13.226572 11.123164 L 13.226572 4.049174 C 13.226572 2.656271 11.680363 1.815776 10.503978 2.568404 L 9.693099 3.088402 Z M 9.693099 12.003271 " stroke="#ffffff" stroke-width="1" stroke-opacity="1" stroke-miterlimit="4"/></g></svg>