<svg xmlns="http://www.w3.org/2000/svg" xmlns:xlink="http://www.w3.org/1999/xlink" width="100" zoomAndPan="magnify" viewBox="0 0 75 74.999997" height="100" preserveAspectRatio="xMidYMid meet" version="1.0"><defs><clipPath id="4e68b76ec9"><path d="M 1.4375 1.4375 L 73.4375 1.4375 L 73.4375 73.4375 L 1.4375 73.4375 Z M 1.4375 1.4375 " clip-rule="nonzero"/></clipPath></defs><rect x="-7.5" width="90" fill="#ffffff" y="-7.5" height="89.999996" fill-opacity="1"/><rect x="-7.5" width="90" fill="#ffffff" y="-7.5" height="89.999996" fill-opacity="1"/><g clip-path="url(#4e68b76ec9)"><path fill="#ffffff" d="M 66.722656 51.972656 C 66.5625 55.480469 65.976562 57.386719 65.488281 58.65625 C 64.835938 60.332031 64.054688 61.535156 62.785156 62.792969 C 61.535156 64.054688 60.332031 64.832031 58.65625 65.480469 C 57.386719 65.972656 55.472656 66.5625 51.964844 66.730469 C 48.171875 66.898438 47.046875 66.933594 37.425781 66.933594 C 27.8125 66.933594 26.679688 66.898438 22.886719 66.730469 C 19.375 66.5625 17.46875 65.972656 16.203125 65.480469 C 14.515625 64.832031 13.324219 64.054688 12.066406 62.792969 C 10.796875 61.535156 10.015625 60.332031 9.371094 58.65625 C 8.882812 57.386719 8.285156 55.480469 8.136719 51.972656 C 7.949219 48.175781 7.917969 47.035156 7.917969 37.433594 C 7.917969 27.8125 7.949219 26.679688 8.136719 22.886719 C 8.285156 19.375 8.882812 17.46875 9.371094 16.191406 C 10.015625 14.515625 10.796875 13.320312 12.066406 12.0625 C 13.324219 10.804688 14.515625 10.023438 16.203125 9.371094 C 17.46875 8.875 19.375 8.292969 22.886719 8.125 C 26.679688 7.960938 27.8125 7.917969 37.425781 7.917969 C 47.046875 7.917969 48.171875 7.960938 51.964844 8.125 C 55.472656 8.292969 57.386719 8.875 58.65625 9.371094 C 60.332031 10.023438 61.535156 10.804688 62.785156 12.0625 C 64.054688 13.320312 64.835938 14.515625 65.488281 16.191406 C 65.976562 17.46875 66.5625 19.375 66.722656 22.886719 C 66.898438 26.679688 66.941406 27.8125 66.941406 37.433594 C 66.941406 47.035156 66.898438 48.175781 66.722656 51.972656 Z M 73.203125 22.589844 C 73.027344 18.753906 72.421875 16.132812 71.523438 13.851562 C 70.609375 11.484375 69.382812 9.476562 67.378906 7.472656 C 65.378906 5.472656 63.375 4.25 61.007812 3.324219 C 58.714844 2.433594 56.105469 1.824219 52.265625 1.65625 C 48.429688 1.46875 47.203125 1.4375 37.425781 1.4375 C 27.652344 1.4375 26.417969 1.46875 22.582031 1.65625 C 18.753906 1.824219 16.144531 2.433594 13.84375 3.324219 C 11.484375 4.25 9.476562 5.472656 7.480469 7.472656 C 5.472656 9.476562 4.25 11.484375 3.324219 13.851562 C 2.4375 16.132812 1.832031 18.753906 1.644531 22.589844 C 1.480469 26.425781 1.4375 27.652344 1.4375 37.433594 C 1.4375 47.203125 1.480469 48.429688 1.644531 52.265625 C 1.832031 56.09375 2.4375 58.714844 3.324219 61.007812 C 4.25 63.363281 5.472656 65.378906 7.480469 67.378906 C 9.476562 69.375 11.484375 70.609375 13.84375 71.53125 C 16.144531 72.421875 18.753906 73.027344 22.582031 73.203125 C 26.417969 73.378906 27.652344 73.421875 37.425781 73.421875 C 47.203125 73.421875 48.429688 73.378906 52.265625 73.203125 C 56.105469 73.027344 58.714844 72.421875 61.007812 71.53125 C 63.375 70.609375 65.378906 69.375 67.378906 67.378906 C 69.382812 65.378906 70.609375 63.363281 71.523438 61.007812 C 72.421875 58.714844 73.027344 56.09375 73.203125 52.265625 C 73.378906 48.429688 73.421875 47.203125 73.421875 37.433594 C 73.421875 27.652344 73.378906 26.425781 73.203125 22.589844 Z M 73.203125 22.589844 " fill-opacity="1" fill-rule="nonzero"/></g><path fill="#ffffff" d="M 37.425781 49.421875 C 30.800781 49.421875 25.429688 44.054688 25.429688 37.433594 C 25.429688 30.800781 30.800781 25.429688 37.425781 25.429688 C 44.050781 25.429688 49.429688 30.800781 49.429688 37.433594 C 49.429688 44.054688 44.050781 49.421875 37.425781 49.421875 Z M 37.425781 18.941406 C 27.214844 18.941406 18.949219 27.226562 18.949219 37.433594 C 18.949219 47.632812 27.214844 55.910156 37.425781 55.910156 C 47.632812 55.910156 55.910156 47.632812 55.910156 37.433594 C 55.910156 27.226562 47.632812 18.941406 37.425781 18.941406 Z M 37.425781 18.941406 " fill-opacity="1" fill-rule="nonzero"/></svg>