<svg xmlns="http://www.w3.org/2000/svg" xmlns:xlink="http://www.w3.org/1999/xlink" width="100" zoomAndPan="magnify" viewBox="0 0 75 74.999997" height="100" preserveAspectRatio="xMidYMid meet" version="1.0"><defs><clipPath id="14ac488240"><path d="M 1.054688 1.054688 L 73.804688 1.054688 L 73.804688 73.804688 L 1.054688 73.804688 Z M 1.054688 1.054688 " clip-rule="nonzero"/></clipPath></defs><rect x="-7.5" width="90" fill="#ffffff" y="-7.5" height="89.999996" fill-opacity="1"/><rect x="-7.5" width="90" fill="#ffffff" y="-7.5" height="89.999996" fill-opacity="1"/><path fill="#ffffff" d="M 31.292969 29.183594 C 24.480469 33.117188 34.871094 52.59375 42.324219 48.292969 L 49.234375 60.257812 C 46.089844 62.074219 43.425781 63.21875 39.78125 61.132812 C 29.664062 55.347656 18.523438 36.0625 18.839844 24.554688 C 18.949219 20.558594 21.304688 18.996094 24.382812 17.21875 Z M 31.292969 29.183594 " fill-opacity="1" fill-rule="evenodd"/><path fill="#ffffff" d="M 34.148438 28.859375 C 33.414062 29.285156 32.464844 29.03125 32.039062 28.292969 L 25.527344 17.011719 C 25.101562 16.277344 25.355469 15.328125 26.089844 14.90625 L 29.515625 12.929688 C 30.25 12.503906 31.199219 12.757812 31.621094 13.492188 L 38.136719 24.773438 C 38.5625 25.511719 38.308594 26.457031 37.570312 26.882812 Z M 34.148438 28.859375 " fill-opacity="1" fill-rule="evenodd"/><path fill="#ffffff" d="M 51.941406 59.679688 C 51.207031 60.101562 50.257812 59.851562 49.835938 59.113281 L 43.320312 47.832031 C 42.894531 47.097656 43.148438 46.148438 43.886719 45.726562 L 47.308594 43.75 C 48.042969 43.324219 48.992188 43.578125 49.417969 44.3125 L 55.929688 55.59375 C 56.355469 56.332031 56.101562 57.277344 55.363281 57.703125 Z M 51.941406 59.679688 " fill-opacity="1" fill-rule="evenodd"/><g clip-path="url(#14ac488240)"><path fill="#ffffff" d="M 37.488281 1.054688 L 37.488281 1.0625 C 47.550781 1.0625 56.660156 5.136719 63.246094 11.726562 C 69.835938 18.3125 73.910156 27.421875 73.910156 37.484375 L 73.921875 37.484375 L 73.921875 37.488281 L 73.910156 37.488281 C 73.910156 47.550781 69.835938 56.660156 63.246094 63.25 C 56.660156 69.835938 47.550781 73.910156 37.488281 73.914062 L 37.488281 73.921875 L 37.484375 73.921875 L 37.484375 73.914062 C 27.421875 73.910156 18.3125 69.835938 11.726562 63.246094 C 5.136719 56.660156 1.0625 47.550781 1.0625 37.488281 L 1.050781 37.488281 L 1.050781 37.484375 L 1.0625 37.484375 C 1.0625 27.421875 5.136719 18.3125 11.726562 11.726562 C 18.3125 5.136719 27.421875 1.0625 37.484375 1.0625 L 37.484375 1.054688 Z M 37.488281 5.398438 L 37.488281 5.40625 L 37.484375 5.40625 L 37.484375 5.398438 C 28.636719 5.398438 20.613281 8.992188 14.804688 14.804688 C 8.996094 20.613281 5.398438 28.636719 5.398438 37.484375 L 5.40625 37.484375 L 5.40625 37.488281 L 5.398438 37.488281 C 5.398438 46.339844 8.992188 54.359375 14.804688 60.167969 C 20.613281 65.980469 28.636719 69.574219 37.488281 69.574219 L 37.488281 69.566406 L 37.488281 69.574219 C 46.339844 69.574219 54.359375 65.980469 60.167969 60.167969 C 65.980469 54.359375 69.574219 46.335938 69.574219 37.488281 L 69.566406 37.488281 L 69.566406 37.484375 L 69.574219 37.484375 C 69.574219 28.632812 65.980469 20.613281 60.167969 14.804688 C 54.359375 8.996094 46.339844 5.398438 37.488281 5.398438 Z M 37.488281 5.398438 " fill-opacity="1" fill-rule="nonzero"/></g></svg>