<svg xmlns="http://www.w3.org/2000/svg" xmlns:xlink="http://www.w3.org/1999/xlink" width="100" zoomAndPan="magnify" viewBox="0 0 75 74.999997" height="100" preserveAspectRatio="xMidYMid meet" version="1.0"><defs><clipPath id="061e005567"><path d="M 0.871094 10.300781 L 74.125 10.300781 L 74.125 64.683594 L 0.871094 64.683594 Z M 0.871094 10.300781 " clip-rule="nonzero"/></clipPath></defs><rect x="-7.5" width="90" fill="#ffffff" y="-7.5" height="89.999996" fill-opacity="1"/><rect x="-7.5" width="90" fill="#ffffff" y="-7.5" height="89.999996" fill-opacity="1"/><g clip-path="url(#061e005567)"><path fill="#ffffff" d="M 5.492188 32.128906 C 4.234375 36.472656 3.15625 38.253906 3.136719 43.597656 C 3.125 48.265625 3.144531 52.9375 3.136719 57.609375 C 3.128906 63.855469 3.574219 64.664062 9.96875 64.683594 C 16.585938 64.707031 15.789062 62.230469 15.808594 56.386719 L 59.125 56.347656 C 59.171875 61.976562 58.402344 64.707031 64.691406 64.683594 C 73.671875 64.664062 71.792969 63.007812 71.800781 43.914062 C 71.804688 38.765625 70.878906 36.375 69.425781 32.125 C 73.675781 31.980469 78.808594 22.195312 65.996094 24.195312 C 65.316406 22.082031 64.394531 20.089844 63.507812 18.015625 C 62.394531 15.390625 62.3125 14.523438 60.515625 12.695312 C 58.988281 11.144531 56.8125 10.496094 54.363281 10.363281 L 53.257812 10.300781 L 20.253906 10.40625 C 14.136719 10.457031 12.851562 14.683594 11.253906 18.433594 C 10.628906 19.890625 9.550781 23.148438 8.671875 24.132812 C -3.660156 22.277344 1.3125 31.96875 5.492188 32.128906 Z M 20.191406 47.871094 L 20.191406 41.410156 L 54.804688 41.410156 L 54.804688 47.871094 Z M 15.441406 45.671875 C 15.441406 47.800781 13.695312 49.53125 11.535156 49.535156 C 9.378906 49.535156 7.628906 47.800781 7.628906 45.671875 C 7.628906 43.539062 9.378906 41.796875 11.535156 41.796875 C 13.695312 41.796875 15.441406 43.539062 15.441406 45.671875 Z M 67.371094 45.671875 C 67.371094 47.800781 65.617188 49.53125 63.464844 49.535156 C 61.296875 49.535156 59.550781 47.800781 59.550781 45.671875 C 59.550781 43.539062 61.296875 41.796875 63.464844 41.796875 C 65.617188 41.796875 67.371094 43.539062 67.371094 45.671875 Z M 20.675781 13.589844 C 23.070312 12.972656 34.851562 13.386719 38.300781 13.382812 C 55.820312 13.382812 55.6875 11.601562 59.007812 19.605469 C 59.875 21.710938 60.789062 23.859375 61.632812 25.929688 C 62.324219 27.652344 64.558594 31.230469 62.816406 32.511719 C 61.527344 33.457031 22.023438 32.945312 18.335938 32.945312 C 9.894531 32.945312 10.242188 33.289062 13.78125 24.746094 C 15.828125 19.792969 17.035156 14.527344 20.675781 13.589844 " fill-opacity="1" fill-rule="evenodd"/></g></svg>