<svg xmlns="http://www.w3.org/2000/svg" xmlns:xlink="http://www.w3.org/1999/xlink" width="100" zoomAndPan="magnify" viewBox="0 0 75 74.999997" height="100" preserveAspectRatio="xMidYMid meet" version="1.0"><defs><clipPath id="64d8163f6c"><path d="M 2.652344 2.652344 L 72.402344 2.652344 L 72.402344 72.402344 L 2.652344 72.402344 Z M 2.652344 2.652344 " clip-rule="nonzero"/></clipPath></defs><rect x="-7.5" width="90" fill="#ffffff" y="-7.5" height="89.999996" fill-opacity="1"/><rect x="-7.5" width="90" fill="#ffffff" y="-7.5" height="89.999996" fill-opacity="1"/><g clip-path="url(#64d8163f6c)"><path fill="#ffffff" d="M 23.558594 58.40625 C 19.707031 58.40625 16.625 61.523438 16.625 65.375 C 16.625 69.222656 19.707031 72.34375 23.558594 72.34375 C 27.410156 72.34375 30.527344 69.222656 30.527344 65.375 C 30.527344 61.523438 27.410156 58.40625 23.558594 58.40625 Z M 2.652344 2.652344 L 2.652344 9.621094 L 9.621094 9.621094 L 22.148438 36.050781 L 17.445312 44.589844 C 16.902344 45.597656 16.589844 46.730469 16.589844 47.949219 C 16.589844 51.800781 19.707031 54.921875 23.558594 54.921875 L 65.375 54.921875 L 65.375 47.949219 L 25.039062 47.949219 C 24.550781 47.949219 24.167969 47.566406 24.167969 47.078125 C 24.167969 46.921875 24.203125 46.785156 24.273438 46.660156 L 27.390625 40.980469 L 53.351562 40.980469 C 55.964844 40.980469 58.246094 39.535156 59.449219 37.394531 L 71.90625 14.777344 C 72.1875 14.289062 72.34375 13.714844 72.34375 13.105469 C 72.34375 11.171875 70.773438 9.621094 68.859375 9.621094 L 17.339844 9.621094 L 14.027344 2.652344 Z M 58.40625 58.40625 C 54.554688 58.40625 51.46875 61.523438 51.46875 65.375 C 51.46875 69.222656 54.554688 72.34375 58.40625 72.34375 C 62.253906 72.34375 65.375 69.222656 65.375 65.375 C 65.375 61.523438 62.253906 58.40625 58.40625 58.40625 Z M 58.40625 58.40625 " fill-opacity="1" fill-rule="nonzero"/></g></svg>