<svg xmlns="http://www.w3.org/2000/svg" xmlns:xlink="http://www.w3.org/1999/xlink" width="100" zoomAndPan="magnify" viewBox="0 0 75 74.999997" height="100" preserveAspectRatio="xMidYMid meet" version="1.0"><defs><clipPath id="280c1f549e"><path d="M 2.371094 2.371094 L 72.871094 2.371094 L 72.871094 72.871094 L 2.371094 72.871094 Z M 2.371094 2.371094 " clip-rule="nonzero"/></clipPath></defs><rect x="-7.5" width="90" fill="#ffffff" y="-7.5" height="89.999996" fill-opacity="1"/><rect x="-7.5" width="90" fill="#ffffff" y="-7.5" height="89.999996" fill-opacity="1"/><g clip-path="url(#280c1f549e)"><path fill="#ffffff" d="M 42.277344 72.621094 L 32.71875 72.621094 C 32.265625 72.621094 31.828125 72.535156 31.410156 72.359375 C 30.992188 72.1875 30.621094 71.941406 30.300781 71.621094 C 29.980469 71.300781 29.734375 70.929688 29.5625 70.511719 C 29.386719 70.09375 29.300781 69.65625 29.300781 69.203125 L 29.300781 62.53125 C 28.027344 62.113281 26.789062 61.601562 25.59375 60.992188 L 20.875 65.722656 C 20.554688 66.042969 20.183594 66.289062 19.765625 66.460938 C 19.347656 66.636719 18.910156 66.722656 18.457031 66.722656 C 18.003906 66.722656 17.570312 66.636719 17.152344 66.460938 C 16.734375 66.289062 16.363281 66.042969 16.042969 65.722656 L 9.273438 58.953125 C 8.953125 58.632812 8.707031 58.261719 8.535156 57.84375 C 8.359375 57.425781 8.273438 56.992188 8.273438 56.539062 C 8.273438 56.085938 8.359375 55.648438 8.535156 55.230469 C 8.707031 54.8125 8.953125 54.441406 9.273438 54.121094 L 14.003906 49.398438 C 13.398438 48.203125 12.886719 46.96875 12.472656 45.691406 L 5.789062 45.691406 C 5.335938 45.691406 4.902344 45.605469 4.484375 45.433594 C 4.066406 45.257812 3.695312 45.011719 3.375 44.691406 C 3.054688 44.371094 2.808594 44.003906 2.636719 43.585938 C 2.460938 43.164062 2.375 42.730469 2.375 42.277344 L 2.375 32.71875 C 2.375 32.265625 2.460938 31.828125 2.636719 31.410156 C 2.808594 30.992188 3.054688 30.621094 3.375 30.300781 C 3.695312 29.984375 4.066406 29.734375 4.484375 29.5625 C 4.902344 29.386719 5.335938 29.300781 5.789062 29.300781 L 12.464844 29.300781 C 12.878906 28.027344 13.390625 26.792969 13.992188 25.59375 L 9.273438 20.875 C 8.953125 20.554688 8.707031 20.183594 8.535156 19.765625 C 8.359375 19.347656 8.273438 18.910156 8.273438 18.457031 C 8.273438 18.003906 8.359375 17.570312 8.535156 17.152344 C 8.707031 16.734375 8.953125 16.363281 9.273438 16.042969 L 16.042969 9.273438 C 16.363281 8.953125 16.734375 8.707031 17.152344 8.535156 C 17.570312 8.359375 18.003906 8.273438 18.457031 8.273438 C 18.910156 8.273438 19.347656 8.359375 19.765625 8.535156 C 20.183594 8.707031 20.554688 8.953125 20.875 9.273438 L 25.597656 14.003906 C 26.792969 13.398438 28.027344 12.886719 29.304688 12.472656 L 29.304688 5.789062 C 29.304688 5.335938 29.390625 4.902344 29.5625 4.484375 C 29.738281 4.066406 29.984375 3.695312 30.304688 3.375 C 30.625 3.054688 30.992188 2.808594 31.410156 2.636719 C 31.832031 2.460938 32.265625 2.375 32.71875 2.375 L 42.28125 2.375 C 42.734375 2.375 43.167969 2.460938 43.585938 2.636719 C 44.003906 2.808594 44.375 3.054688 44.695312 3.375 C 45.015625 3.695312 45.261719 4.066406 45.4375 4.484375 C 45.609375 4.902344 45.695312 5.335938 45.695312 5.789062 L 45.695312 12.464844 C 46.972656 12.878906 48.207031 13.390625 49.402344 13.992188 L 54.121094 9.273438 C 54.441406 8.953125 54.8125 8.707031 55.230469 8.535156 C 55.648438 8.359375 56.085938 8.273438 56.539062 8.273438 C 56.992188 8.273438 57.425781 8.359375 57.84375 8.535156 C 58.261719 8.707031 58.632812 8.953125 58.953125 9.273438 L 65.722656 16.042969 C 66.042969 16.363281 66.289062 16.734375 66.460938 17.152344 C 66.632812 17.570312 66.71875 18.007812 66.71875 18.457031 C 66.71875 18.910156 66.632812 19.347656 66.460938 19.765625 C 66.289062 20.183594 66.042969 20.554688 65.722656 20.875 L 60.992188 25.597656 C 61.601562 26.792969 62.113281 28.027344 62.53125 29.304688 L 69.203125 29.304688 C 69.65625 29.304688 70.09375 29.390625 70.511719 29.5625 C 70.929688 29.738281 71.300781 29.984375 71.621094 30.304688 C 71.941406 30.625 72.1875 30.992188 72.359375 31.410156 C 72.535156 31.828125 72.621094 32.265625 72.621094 32.71875 L 72.621094 42.28125 C 72.621094 42.734375 72.535156 43.167969 72.359375 43.585938 C 72.1875 44.007812 71.941406 44.375 71.621094 44.695312 C 71.300781 45.015625 70.929688 45.261719 70.511719 45.4375 C 70.09375 45.609375 69.65625 45.695312 69.203125 45.695312 L 62.53125 45.695312 C 62.113281 46.972656 61.601562 48.207031 60.992188 49.402344 L 65.722656 54.121094 C 66.042969 54.441406 66.289062 54.8125 66.460938 55.230469 C 66.632812 55.648438 66.71875 56.085938 66.71875 56.539062 C 66.71875 56.988281 66.632812 57.425781 66.460938 57.84375 C 66.289062 58.261719 66.042969 58.632812 65.722656 58.953125 L 58.953125 65.722656 C 58.632812 66.042969 58.261719 66.289062 57.84375 66.460938 C 57.425781 66.636719 56.992188 66.722656 56.539062 66.722656 C 56.085938 66.722656 55.648438 66.636719 55.230469 66.460938 C 54.8125 66.289062 54.441406 66.042969 54.121094 65.722656 L 49.398438 60.992188 C 48.203125 61.601562 46.96875 62.113281 45.691406 62.53125 L 45.691406 69.207031 C 45.691406 69.660156 45.605469 70.09375 45.433594 70.511719 C 45.257812 70.929688 45.011719 71.300781 44.691406 71.621094 C 44.371094 71.941406 44.003906 72.1875 43.585938 72.359375 C 43.167969 72.535156 42.730469 72.621094 42.277344 72.621094 Z M 25.285156 57.195312 C 25.589844 57.195312 25.875 57.269531 26.136719 57.421875 C 27.816406 58.382812 29.589844 59.121094 31.457031 59.632812 C 31.824219 59.734375 32.125 59.933594 32.359375 60.238281 C 32.59375 60.546875 32.707031 60.890625 32.707031 61.273438 L 32.707031 69.210938 C 32.707031 69.21875 32.710938 69.226562 32.722656 69.226562 L 42.285156 69.226562 C 42.296875 69.226562 42.300781 69.222656 42.300781 69.210938 L 42.300781 61.265625 C 42.300781 60.882812 42.417969 60.539062 42.648438 60.234375 C 42.882812 59.929688 43.183594 59.726562 43.554688 59.625 C 45.421875 59.117188 47.191406 58.378906 48.871094 57.417969 C 49.203125 57.226562 49.558594 57.160156 49.9375 57.210938 C 50.316406 57.261719 50.640625 57.421875 50.910156 57.691406 L 56.523438 63.300781 C 56.53125 63.308594 56.539062 63.308594 56.546875 63.300781 L 63.304688 56.539062 C 63.3125 56.53125 63.3125 56.523438 63.304688 56.515625 L 57.695312 50.90625 C 57.425781 50.636719 57.265625 50.3125 57.214844 49.933594 C 57.164062 49.554688 57.234375 49.199219 57.421875 48.867188 C 58.382812 47.1875 59.121094 45.414062 59.632812 43.550781 C 59.734375 43.179688 59.933594 42.878906 60.238281 42.644531 C 60.546875 42.414062 60.890625 42.296875 61.273438 42.296875 L 69.210938 42.296875 C 69.21875 42.296875 69.226562 42.292969 69.226562 42.28125 L 69.226562 32.71875 C 69.226562 32.707031 69.21875 32.699219 69.210938 32.703125 L 61.265625 32.703125 C 60.882812 32.703125 60.539062 32.585938 60.234375 32.351562 C 59.929688 32.121094 59.726562 31.820312 59.625 31.449219 C 59.117188 29.582031 58.378906 27.808594 57.417969 26.132812 C 57.226562 25.800781 57.160156 25.445312 57.210938 25.066406 C 57.261719 24.6875 57.421875 24.363281 57.691406 24.089844 L 63.300781 18.480469 C 63.308594 18.472656 63.308594 18.464844 63.300781 18.457031 L 56.550781 11.6875 C 56.542969 11.679688 56.535156 11.679688 56.527344 11.6875 L 50.914062 17.296875 C 50.644531 17.566406 50.320312 17.726562 49.941406 17.777344 C 49.5625 17.828125 49.207031 17.761719 48.875 17.570312 C 47.195312 16.609375 45.421875 15.871094 43.558594 15.359375 C 43.1875 15.261719 42.886719 15.058594 42.652344 14.753906 C 42.421875 14.449219 42.304688 14.105469 42.304688 13.71875 L 42.304688 5.789062 C 42.304688 5.78125 42.300781 5.773438 42.289062 5.773438 L 32.71875 5.773438 C 32.707031 5.773438 32.703125 5.78125 32.703125 5.789062 L 32.703125 13.730469 C 32.703125 14.113281 32.585938 14.457031 32.351562 14.761719 C 32.121094 15.066406 31.820312 15.269531 31.449219 15.371094 C 29.582031 15.882812 27.808594 16.617188 26.128906 17.578125 C 25.796875 17.769531 25.441406 17.835938 25.0625 17.785156 C 24.683594 17.734375 24.359375 17.574219 24.089844 17.304688 L 18.480469 11.695312 C 18.472656 11.6875 18.464844 11.6875 18.457031 11.695312 L 11.6875 18.457031 C 11.679688 18.460938 11.679688 18.46875 11.6875 18.476562 L 17.296875 24.089844 C 17.566406 24.359375 17.726562 24.683594 17.777344 25.0625 C 17.828125 25.441406 17.761719 25.796875 17.570312 26.128906 C 16.609375 27.808594 15.871094 29.578125 15.359375 31.445312 C 15.261719 31.816406 15.058594 32.117188 14.753906 32.347656 C 14.449219 32.582031 14.105469 32.699219 13.71875 32.699219 L 5.789062 32.699219 C 5.78125 32.699219 5.773438 32.703125 5.773438 32.714844 L 5.773438 42.277344 C 5.773438 42.285156 5.78125 42.292969 5.789062 42.292969 L 13.730469 42.292969 C 14.113281 42.289062 14.457031 42.40625 14.761719 42.640625 C 15.066406 42.871094 15.269531 43.175781 15.371094 43.542969 C 15.878906 45.410156 16.617188 47.183594 17.578125 48.859375 C 17.769531 49.191406 17.835938 49.546875 17.785156 49.925781 C 17.734375 50.304688 17.574219 50.628906 17.304688 50.902344 L 11.695312 56.511719 C 11.6875 56.519531 11.6875 56.527344 11.695312 56.535156 L 18.457031 63.308594 C 18.464844 63.316406 18.472656 63.316406 18.480469 63.308594 L 24.089844 57.699219 C 24.421875 57.367188 24.820312 57.199219 25.285156 57.195312 Z M 37.519531 55.601562 C 35.113281 55.613281 32.796875 55.160156 30.574219 54.242188 C 28.347656 53.324219 26.386719 52.011719 24.6875 50.308594 C 19.601562 45.222656 18.039062 37.714844 20.617188 30.71875 C 21.042969 29.558594 21.589844 28.460938 22.253906 27.421875 C 22.917969 26.386719 23.683594 25.429688 24.554688 24.558594 C 25.429688 23.6875 26.382812 22.917969 27.421875 22.253906 C 28.460938 21.589844 29.558594 21.046875 30.714844 20.621094 C 37.714844 18.039062 45.222656 19.601562 50.308594 24.6875 C 55.398438 29.773438 56.957031 37.28125 54.378906 44.28125 C 53.953125 45.4375 53.40625 46.535156 52.742188 47.574219 C 52.078125 48.613281 51.308594 49.566406 50.4375 50.441406 C 49.566406 51.3125 48.613281 52.078125 47.574219 52.742188 C 46.535156 53.40625 45.4375 53.953125 44.277344 54.378906 C 42.097656 55.1875 39.847656 55.597656 37.519531 55.601562 Z M 37.546875 22.773438 C 35.597656 22.78125 33.714844 23.128906 31.890625 23.808594 C 30.964844 24.148438 30.085938 24.585938 29.257812 25.117188 C 28.425781 25.648438 27.660156 26.261719 26.960938 26.960938 C 26.265625 27.65625 25.648438 28.421875 25.117188 29.253906 C 24.585938 30.082031 24.148438 30.960938 23.808594 31.886719 C 21.664062 37.710938 22.890625 43.699219 27.089844 47.898438 C 28.457031 49.285156 30.039062 50.351562 31.835938 51.101562 C 33.632812 51.851562 35.503906 52.222656 37.449219 52.21875 C 39.398438 52.207031 41.28125 51.863281 43.105469 51.179688 C 44.03125 50.839844 44.90625 50.40625 45.738281 49.875 C 46.570312 49.34375 47.335938 48.730469 48.03125 48.03125 C 48.730469 47.335938 49.34375 46.574219 49.875 45.742188 C 50.410156 44.910156 50.84375 44.035156 51.1875 43.109375 C 53.332031 37.285156 52.105469 31.296875 47.90625 27.097656 C 46.539062 25.707031 44.957031 24.640625 43.160156 23.890625 C 41.363281 23.140625 39.492188 22.765625 37.546875 22.773438 Z M 37.546875 22.773438 " fill-opacity="1" fill-rule="nonzero"/></g></svg>