<svg xmlns="http://www.w3.org/2000/svg" xmlns:xlink="http://www.w3.org/1999/xlink" width="100" zoomAndPan="magnify" viewBox="0 0 75 74.999997" height="100" preserveAspectRatio="xMidYMid meet" version="1.0"><defs><clipPath id="e41b900db1"><path d="M 1.007812 22 L 21 22 L 21 32 L 1.007812 32 Z M 1.007812 22 " clip-rule="nonzero"/></clipPath><clipPath id="4eed03b14f"><path d="M 1.007812 43 L 21 43 L 21 53 L 1.007812 53 Z M 1.007812 43 " clip-rule="nonzero"/></clipPath><clipPath id="bba41397fa"><path d="M 54 43 L 73.757812 43 L 73.757812 53 L 54 53 Z M 54 43 " clip-rule="nonzero"/></clipPath><clipPath id="44e9a3b80d"><path d="M 54 22 L 73.757812 22 L 73.757812 32 L 54 32 Z M 54 22 " clip-rule="nonzero"/></clipPath><clipPath id="e6da307bb1"><path d="M 43 0.636719 L 53 0.636719 L 53 21 L 43 21 Z M 43 0.636719 " clip-rule="nonzero"/></clipPath><clipPath id="7208b94d58"><path d="M 22 0.636719 L 32 0.636719 L 32 21 L 22 21 Z M 22 0.636719 " clip-rule="nonzero"/></clipPath><clipPath id="2c9b74682f"><path d="M 22 54 L 32 54 L 32 74.136719 L 22 74.136719 Z M 22 54 " clip-rule="nonzero"/></clipPath><clipPath id="a8724a2a4b"><path d="M 43 54 L 53 54 L 53 74.136719 L 43 74.136719 Z M 43 54 " clip-rule="nonzero"/></clipPath></defs><rect x="-7.5" width="90" fill="#ffffff" y="-7.5" height="89.999996" fill-opacity="1"/><rect x="-7.5" width="90" fill="#ffffff" y="-7.5" height="89.999996" fill-opacity="1"/><path fill="#ffffff" d="M 10.015625 39.753906 C 8.773438 39.753906 7.765625 38.738281 7.765625 37.5 C 7.765625 36.253906 8.773438 35.246094 10.015625 35.246094 C 11.261719 35.246094 12.269531 36.253906 12.269531 37.5 C 12.269531 38.738281 11.261719 39.753906 10.015625 39.753906 Z M 14.375 36.375 C 13.875 34.429688 12.117188 32.996094 10.015625 32.996094 C 7.527344 32.996094 5.511719 35.011719 5.511719 37.5 C 5.511719 39.984375 7.527344 42.003906 10.015625 42.003906 C 12.117188 42.003906 13.875 40.5625 14.375 38.625 L 17.042969 38.625 C 17.019531 38.25 17.011719 37.878906 17.011719 37.5 C 17.011719 37.121094 17.019531 36.746094 17.042969 36.375 L 14.375 36.375 " fill-opacity="1" fill-rule="nonzero"/><g clip-path="url(#e41b900db1)"><path fill="#ffffff" d="M 5.511719 29.054688 C 4.269531 29.054688 3.261719 28.039062 3.261719 26.800781 C 3.261719 25.558594 4.269531 24.550781 5.511719 24.550781 C 6.757812 24.550781 7.765625 25.558594 7.765625 26.800781 C 7.765625 28.039062 6.757812 29.054688 5.511719 29.054688 Z M 5.511719 22.296875 C 3.023438 22.296875 1.007812 24.3125 1.007812 26.800781 C 1.007812 29.285156 3.023438 31.308594 5.511719 31.308594 C 7.613281 31.308594 9.371094 29.863281 9.871094 27.925781 L 19.386719 27.925781 C 19.796875 27.148438 20.257812 26.398438 20.769531 25.675781 L 9.871094 25.675781 C 9.371094 23.734375 7.613281 22.296875 5.511719 22.296875 " fill-opacity="1" fill-rule="nonzero"/></g><g clip-path="url(#4eed03b14f)"><path fill="#ffffff" d="M 5.511719 50.449219 C 4.269531 50.449219 3.261719 49.4375 3.261719 48.199219 C 3.261719 46.953125 4.269531 45.945312 5.511719 45.945312 C 6.757812 45.945312 7.765625 46.953125 7.765625 48.199219 C 7.765625 49.4375 6.757812 50.449219 5.511719 50.449219 Z M 9.871094 47.074219 C 9.371094 45.128906 7.613281 43.691406 5.511719 43.691406 C 3.023438 43.691406 1.007812 45.710938 1.007812 48.199219 C 1.007812 50.679688 3.023438 52.703125 5.511719 52.703125 C 7.613281 52.703125 9.371094 51.261719 9.871094 49.324219 L 20.765625 49.324219 C 20.253906 48.601562 19.792969 47.851562 19.382812 47.074219 L 9.871094 47.074219 " fill-opacity="1" fill-rule="nonzero"/></g><path fill="#ffffff" d="M 64.972656 35.246094 C 66.21875 35.246094 67.226562 36.261719 67.226562 37.5 C 67.226562 38.746094 66.21875 39.753906 64.972656 39.753906 C 63.726562 39.753906 62.71875 38.746094 62.71875 37.5 C 62.71875 36.261719 63.726562 35.246094 64.972656 35.246094 Z M 60.617188 38.625 C 61.113281 40.570312 62.871094 42.003906 64.972656 42.003906 C 67.460938 42.003906 69.476562 39.988281 69.476562 37.5 C 69.476562 35.015625 67.460938 32.996094 64.972656 32.996094 C 62.871094 32.996094 61.113281 34.4375 60.617188 36.375 L 57.945312 36.375 C 57.96875 36.746094 57.980469 37.121094 57.980469 37.5 C 57.980469 37.878906 57.96875 38.25 57.945312 38.625 L 60.617188 38.625 " fill-opacity="1" fill-rule="nonzero"/><g clip-path="url(#bba41397fa)"><path fill="#ffffff" d="M 69.476562 50.449219 C 68.234375 50.449219 67.226562 49.441406 67.226562 48.199219 C 67.226562 46.960938 68.234375 45.945312 69.476562 45.945312 C 70.71875 45.945312 71.726562 46.960938 71.726562 48.199219 C 71.726562 49.441406 70.71875 50.449219 69.476562 50.449219 Z M 69.476562 43.691406 C 67.375 43.691406 65.617188 45.136719 65.117188 47.074219 L 55.605469 47.074219 C 55.195312 47.851562 54.734375 48.601562 54.222656 49.324219 L 65.117188 49.324219 C 65.617188 51.265625 67.375 52.703125 69.476562 52.703125 C 71.964844 52.703125 73.980469 50.6875 73.980469 48.199219 C 73.980469 45.714844 71.964844 43.691406 69.476562 43.691406 " fill-opacity="1" fill-rule="nonzero"/></g><g clip-path="url(#44e9a3b80d)"><path fill="#ffffff" d="M 69.476562 24.550781 C 70.71875 24.550781 71.726562 25.5625 71.726562 26.800781 C 71.726562 28.046875 70.71875 29.054688 69.476562 29.054688 C 68.234375 29.054688 67.226562 28.046875 67.226562 26.800781 C 67.226562 25.5625 68.234375 24.550781 69.476562 24.550781 Z M 65.117188 27.925781 C 65.617188 29.871094 67.375 31.308594 69.476562 31.308594 C 71.964844 31.308594 73.980469 29.289062 73.980469 26.800781 C 73.980469 24.320312 71.964844 22.296875 69.476562 22.296875 C 67.375 22.296875 65.617188 23.738281 65.117188 25.675781 L 54.222656 25.675781 C 54.738281 26.398438 55.195312 27.148438 55.605469 27.925781 L 65.117188 27.925781 " fill-opacity="1" fill-rule="nonzero"/></g><path fill="#ffffff" d="M 37.496094 7.394531 C 38.738281 7.394531 39.746094 8.402344 39.746094 9.648438 C 39.746094 10.894531 38.738281 11.902344 37.496094 11.902344 C 36.257812 11.902344 35.242188 10.894531 35.242188 9.648438 C 35.242188 8.402344 36.257812 7.394531 37.496094 7.394531 Z M 36.367188 14.007812 L 36.367188 17.046875 C 36.742188 17.027344 37.117188 17.015625 37.496094 17.015625 C 37.871094 17.015625 38.246094 17.027344 38.621094 17.046875 L 38.621094 14.007812 C 40.5625 13.503906 41.996094 11.746094 41.996094 9.648438 C 41.996094 7.160156 39.984375 5.144531 37.496094 5.144531 C 35.011719 5.144531 32.992188 7.160156 32.992188 9.648438 C 32.992188 11.746094 34.433594 13.503906 36.367188 14.007812 " fill-opacity="1" fill-rule="nonzero"/><g clip-path="url(#e6da307bb1)"><path fill="#ffffff" d="M 48.195312 2.890625 C 49.4375 2.890625 50.445312 3.898438 50.445312 5.144531 C 50.445312 6.390625 49.4375 7.394531 48.195312 7.394531 C 46.957031 7.394531 45.941406 6.390625 45.941406 5.144531 C 45.941406 3.898438 46.957031 2.890625 48.195312 2.890625 Z M 47.066406 9.5 L 47.066406 19.390625 C 47.84375 19.800781 48.59375 20.261719 49.316406 20.773438 L 49.316406 9.5 C 51.261719 9 52.699219 7.246094 52.699219 5.144531 C 52.699219 2.65625 50.679688 0.636719 48.195312 0.636719 C 45.710938 0.636719 43.6875 2.65625 43.6875 5.144531 C 43.6875 7.246094 45.132812 9 47.066406 9.5 " fill-opacity="1" fill-rule="nonzero"/></g><g clip-path="url(#7208b94d58)"><path fill="#ffffff" d="M 26.796875 2.890625 C 28.039062 2.890625 29.046875 3.898438 29.046875 5.144531 C 29.046875 6.390625 28.039062 7.394531 26.796875 7.394531 C 25.554688 7.394531 24.546875 6.390625 24.546875 5.144531 C 24.546875 3.898438 25.554688 2.890625 26.796875 2.890625 Z M 25.671875 9.5 L 25.671875 20.769531 C 26.390625 20.257812 27.144531 19.796875 27.921875 19.386719 L 27.921875 9.5 C 29.863281 9 31.300781 7.246094 31.300781 5.144531 C 31.300781 2.65625 29.285156 0.636719 26.796875 0.636719 C 24.316406 0.636719 22.292969 2.65625 22.292969 5.144531 C 22.292969 7.246094 23.730469 9 25.671875 9.5 " fill-opacity="1" fill-rule="nonzero"/></g><path fill="#ffffff" d="M 37.496094 67.605469 C 36.25 67.605469 35.242188 66.597656 35.242188 65.351562 C 35.242188 64.105469 36.25 63.097656 37.496094 63.097656 C 38.734375 63.097656 39.746094 64.105469 39.746094 65.351562 C 39.746094 66.597656 38.734375 67.605469 37.496094 67.605469 Z M 38.621094 60.992188 L 38.621094 57.953125 C 38.246094 57.972656 37.871094 57.984375 37.496094 57.984375 C 37.117188 57.984375 36.742188 57.972656 36.367188 57.953125 L 36.367188 60.992188 C 34.425781 61.496094 32.992188 63.253906 32.992188 65.351562 C 32.992188 67.839844 35.003906 69.855469 37.496094 69.855469 C 39.980469 69.855469 41.996094 67.839844 41.996094 65.351562 C 41.996094 63.253906 40.558594 61.496094 38.621094 60.992188 " fill-opacity="1" fill-rule="nonzero"/><g clip-path="url(#2c9b74682f)"><path fill="#ffffff" d="M 26.796875 72.109375 C 25.554688 72.109375 24.546875 71.101562 24.546875 69.855469 C 24.546875 68.609375 25.554688 67.605469 26.796875 67.605469 C 28.035156 67.605469 29.046875 68.609375 29.046875 69.855469 C 29.046875 71.101562 28.035156 72.109375 26.796875 72.109375 Z M 27.921875 65.5 L 27.921875 55.609375 C 27.144531 55.199219 26.394531 54.738281 25.671875 54.226562 L 25.671875 65.5 C 23.730469 65.996094 22.292969 67.753906 22.292969 69.855469 C 22.292969 72.34375 24.308594 74.359375 26.796875 74.359375 C 29.277344 74.359375 31.300781 72.34375 31.300781 69.855469 C 31.300781 67.753906 29.859375 65.996094 27.921875 65.5 " fill-opacity="1" fill-rule="nonzero"/></g><g clip-path="url(#a8724a2a4b)"><path fill="#ffffff" d="M 48.195312 72.109375 C 46.949219 72.109375 45.941406 71.101562 45.941406 69.855469 C 45.941406 68.609375 46.949219 67.605469 48.195312 67.605469 C 49.433594 67.605469 50.445312 68.609375 50.445312 69.855469 C 50.445312 71.101562 49.433594 72.109375 48.195312 72.109375 Z M 49.316406 65.5 L 49.316406 54.230469 C 48.597656 54.742188 47.84375 55.203125 47.066406 55.613281 L 47.066406 65.5 C 45.125 65.996094 43.6875 67.753906 43.6875 69.855469 C 43.6875 72.34375 45.703125 74.359375 48.195312 74.359375 C 50.675781 74.359375 52.699219 72.34375 52.699219 69.855469 C 52.699219 67.753906 51.257812 65.996094 49.316406 65.5 " fill-opacity="1" fill-rule="nonzero"/></g><path fill="#ffffff" d="M 32.703125 39.066406 L 37 39.066406 L 34.832031 33.136719 Z M 32.703125 39.066406 " fill-opacity="1" fill-rule="nonzero"/><path fill="#ffffff" d="M 46.746094 43.160156 C 46.746094 43.753906 46.609375 44.195312 46.335938 44.488281 C 46.070312 44.785156 45.714844 44.929688 45.277344 44.929688 C 44.855469 44.929688 44.511719 44.785156 44.242188 44.488281 C 43.96875 44.1875 43.835938 43.746094 43.835938 43.160156 L 43.835938 31.832031 C 43.835938 31.242188 43.964844 30.804688 44.234375 30.511719 C 44.503906 30.214844 44.851562 30.066406 45.277344 30.066406 C 45.714844 30.066406 46.070312 30.210938 46.335938 30.503906 C 46.609375 30.792969 46.746094 31.234375 46.746094 31.832031 Z M 41.164062 44.515625 C 40.882812 44.792969 40.546875 44.929688 40.15625 44.929688 C 39.925781 44.929688 39.730469 44.890625 39.570312 44.808594 C 39.40625 44.726562 39.269531 44.617188 39.15625 44.476562 C 39.042969 44.335938 38.925781 44.117188 38.796875 43.832031 C 38.671875 43.539062 38.5625 43.285156 38.472656 43.058594 L 37.78125 41.253906 L 31.9375 41.253906 L 31.253906 43.097656 C 30.984375 43.816406 30.757812 44.304688 30.570312 44.554688 C 30.375 44.808594 30.066406 44.929688 29.636719 44.929688 C 29.269531 44.929688 28.945312 44.796875 28.664062 44.53125 C 28.382812 44.261719 28.246094 43.957031 28.246094 43.621094 C 28.246094 43.421875 28.277344 43.21875 28.339844 43.011719 C 28.410156 42.800781 28.515625 42.507812 28.664062 42.136719 L 32.339844 32.804688 C 32.449219 32.535156 32.570312 32.210938 32.71875 31.835938 C 32.867188 31.460938 33.023438 31.148438 33.191406 30.898438 C 33.355469 30.652344 33.578125 30.453125 33.847656 30.296875 C 34.117188 30.144531 34.453125 30.066406 34.851562 30.066406 C 35.257812 30.066406 35.597656 30.144531 35.867188 30.296875 C 36.136719 30.453125 36.359375 30.652344 36.523438 30.890625 C 36.691406 31.132812 36.832031 31.394531 36.945312 31.671875 C 37.058594 31.949219 37.207031 32.316406 37.382812 32.78125 L 41.136719 42.0625 C 41.429688 42.765625 41.578125 43.28125 41.578125 43.601562 C 41.578125 43.933594 41.441406 44.238281 41.164062 44.515625 Z M 48.378906 25.335938 C 45.492188 22.75 41.675781 21.175781 37.496094 21.175781 C 33.316406 21.175781 29.496094 22.75 26.609375 25.335938 C 26.15625 25.738281 25.734375 26.164062 25.332031 26.613281 C 22.746094 29.5 21.171875 33.320312 21.171875 37.5 C 21.171875 41.679688 22.746094 45.5 25.332031 48.386719 C 25.734375 48.835938 26.15625 49.261719 26.609375 49.664062 C 29.496094 52.25 33.316406 53.824219 37.496094 53.824219 C 41.675781 53.824219 45.492188 52.25 48.378906 49.664062 C 48.832031 49.261719 49.257812 48.835938 49.65625 48.386719 C 52.242188 45.5 53.816406 41.679688 53.816406 37.5 C 53.816406 33.320312 52.242188 29.5 49.65625 26.613281 C 49.257812 26.164062 48.832031 25.738281 48.378906 25.335938 " fill-opacity="1" fill-rule="nonzero"/><path fill="#ffffff" d="M 62.453125 22.945312 C 59.597656 22.945312 57.292969 22.117188 55.578125 20.46875 C 51.753906 16.792969 52.402344 10.449219 52.429688 10.179688 C 52.488281 9.648438 52.96875 9.265625 53.5 9.324219 C 54.03125 9.382812 54.414062 9.859375 54.355469 10.390625 C 54.347656 10.449219 53.789062 16.070312 56.925781 19.078125 C 58.675781 20.757812 61.304688 21.34375 64.75 20.828125 C 65.277344 20.75 65.769531 21.113281 65.847656 21.640625 C 65.929688 22.171875 65.5625 22.664062 65.035156 22.742188 C 64.128906 22.878906 63.269531 22.945312 62.453125 22.945312 " fill-opacity="1" fill-rule="nonzero"/><path fill="#ffffff" d="M 64.578125 18.835938 C 62.496094 18.835938 60.808594 18.226562 59.546875 17.015625 C 56.757812 14.332031 57.226562 9.738281 57.25 9.542969 C 57.308594 9.011719 57.785156 8.628906 58.316406 8.6875 C 58.847656 8.746094 59.230469 9.222656 59.171875 9.753906 C 59.167969 9.789062 58.792969 13.609375 60.894531 15.625 C 62.058594 16.738281 63.824219 17.125 66.152344 16.777344 C 66.679688 16.699219 67.171875 17.0625 67.253906 17.589844 C 67.332031 18.117188 66.96875 18.609375 66.4375 18.691406 C 65.789062 18.789062 65.167969 18.835938 64.578125 18.835938 " fill-opacity="1" fill-rule="nonzero"/><path fill="#ffffff" d="M 13.265625 52.597656 C 16.121094 52.597656 18.425781 53.425781 20.140625 55.074219 C 23.964844 58.75 23.320312 65.09375 23.289062 65.359375 C 23.230469 65.890625 22.753906 66.273438 22.222656 66.214844 C 21.691406 66.160156 21.308594 65.679688 21.367188 65.152344 C 21.371094 65.09375 21.933594 59.46875 18.792969 56.460938 C 17.046875 54.785156 14.414062 54.195312 10.972656 54.714844 C 10.445312 54.792969 9.949219 54.429688 9.871094 53.898438 C 9.792969 53.371094 10.15625 52.878906 10.683594 52.800781 C 11.589844 52.664062 12.449219 52.597656 13.265625 52.597656 " fill-opacity="1" fill-rule="nonzero"/><path fill="#ffffff" d="M 11.140625 56.707031 C 13.222656 56.707031 14.910156 57.316406 16.171875 58.527344 C 18.960938 61.207031 18.492188 65.804688 18.472656 66 C 18.414062 66.53125 17.9375 66.914062 17.402344 66.855469 C 16.875 66.796875 16.492188 66.320312 16.546875 65.789062 C 16.550781 65.75 16.929688 61.929688 14.824219 59.917969 C 13.664062 58.804688 11.894531 58.417969 9.566406 58.765625 C 9.039062 58.84375 8.546875 58.480469 8.46875 57.953125 C 8.386719 57.421875 8.753906 56.929688 9.28125 56.851562 C 9.933594 56.753906 10.554688 56.707031 11.140625 56.707031 " fill-opacity="1" fill-rule="nonzero"/><path fill="#ffffff" d="M 52.683594 62.363281 C 52.683594 59.507812 53.515625 57.203125 55.160156 55.488281 C 58.839844 51.664062 65.183594 52.3125 65.449219 52.34375 C 65.980469 52.398438 66.363281 52.878906 66.304688 53.410156 C 66.246094 53.941406 65.769531 54.324219 65.238281 54.265625 C 65.183594 54.257812 59.558594 53.699219 56.550781 56.835938 C 54.875 58.585938 54.285156 61.21875 54.800781 64.660156 C 54.882812 65.1875 54.515625 65.679688 53.988281 65.757812 C 53.460938 65.839844 52.96875 65.476562 52.886719 64.945312 C 52.753906 64.042969 52.683594 63.179688 52.683594 62.363281 " fill-opacity="1" fill-rule="nonzero"/><path fill="#ffffff" d="M 56.792969 64.488281 C 56.792969 62.40625 57.402344 60.71875 58.617188 59.457031 C 61.296875 56.667969 65.894531 57.136719 66.089844 57.160156 C 66.621094 57.21875 67.003906 57.695312 66.945312 58.226562 C 66.886719 58.757812 66.410156 59.140625 65.878906 59.082031 C 65.839844 59.078125 62.019531 58.703125 60.007812 60.804688 C 58.894531 61.96875 58.507812 63.738281 58.855469 66.0625 C 58.933594 66.589844 58.570312 67.082031 58.042969 67.164062 C 57.511719 67.242188 57.019531 66.878906 56.941406 66.347656 C 56.84375 65.699219 56.792969 65.078125 56.792969 64.488281 " fill-opacity="1" fill-rule="nonzero"/><path fill="#ffffff" d="M 23.035156 13.175781 C 23.035156 16.03125 22.207031 18.339844 20.558594 20.050781 C 16.882812 23.875 10.539062 23.230469 10.269531 23.199219 C 9.738281 23.140625 9.355469 22.664062 9.414062 22.132812 C 9.472656 21.601562 9.949219 21.21875 10.480469 21.277344 C 10.535156 21.28125 16.160156 21.84375 19.167969 18.707031 C 20.84375 16.957031 21.433594 14.324219 20.917969 10.882812 C 20.839844 10.355469 21.203125 9.859375 21.730469 9.78125 C 22.261719 9.703125 22.753906 10.066406 22.832031 10.59375 C 22.96875 11.5 23.035156 12.363281 23.035156 13.175781 " fill-opacity="1" fill-rule="nonzero"/><path fill="#ffffff" d="M 18.925781 11.054688 C 18.925781 13.136719 18.316406 14.820312 17.105469 16.082031 C 14.421875 18.871094 9.828125 18.402344 9.632812 18.382812 C 9.101562 18.324219 8.71875 17.847656 8.777344 17.316406 C 8.832031 16.785156 9.3125 16.402344 9.839844 16.457031 C 9.878906 16.460938 13.699219 16.839844 15.714844 14.734375 C 16.828125 13.574219 17.214844 11.804688 16.867188 9.480469 C 16.785156 8.949219 17.152344 8.457031 17.679688 8.378906 C 18.207031 8.300781 18.699219 8.664062 18.78125 9.191406 C 18.878906 9.84375 18.925781 10.464844 18.925781 11.054688 " fill-opacity="1" fill-rule="nonzero"/></svg>