<svg xmlns="http://www.w3.org/2000/svg" xmlns:xlink="http://www.w3.org/1999/xlink" width="100" zoomAndPan="magnify" viewBox="0 0 75 74.999997" height="100" preserveAspectRatio="xMidYMid meet" version="1.0"><defs><clipPath id="dcb0f32276"><path d="M 36 2.316406 L 39 2.316406 L 39 9 L 36 9 Z M 36 2.316406 " clip-rule="nonzero"/></clipPath><clipPath id="ab01c0b60c"><path d="M 60 30 L 66.886719 30 L 66.886719 33 L 60 33 Z M 60 30 " clip-rule="nonzero"/></clipPath><clipPath id="36138db891"><path d="M 8.386719 30 L 15 30 L 15 33 L 8.386719 33 Z M 8.386719 30 " clip-rule="nonzero"/></clipPath><clipPath id="5f57f276f2"><path d="M 34 69 L 41 69 L 41 72.816406 L 34 72.816406 Z M 34 69 " clip-rule="nonzero"/></clipPath></defs><rect x="-7.5" width="90" fill="#ffffff" y="-7.5" height="89.999996" fill-opacity="1"/><rect x="-7.5" width="90" fill="#ffffff" y="-7.5" height="89.999996" fill-opacity="1"/><path fill="#ffffff" d="M 48.390625 59.894531 C 48.390625 60.046875 48.386719 60.203125 48.375 60.359375 L 26.621094 60.359375 C 26.609375 60.203125 26.605469 60.046875 26.605469 59.894531 C 26.605469 58.988281 26.585938 58.140625 26.546875 57.335938 L 48.449219 57.335938 C 48.410156 58.140625 48.390625 58.988281 48.390625 59.894531 Z M 26.472656 56.101562 C 25.347656 41.03125 17.433594 44.300781 17.433594 31.226562 C 17.433594 20.144531 26.414062 11.160156 37.5 11.160156 C 48.582031 11.160156 57.566406 20.144531 57.566406 31.226562 C 57.566406 44.300781 49.648438 41.03125 48.523438 56.101562 Z M 48.199219 61.59375 C 47.972656 62.632812 47.550781 63.671875 46.984375 64.613281 L 28.011719 64.613281 C 27.445312 63.671875 27.023438 62.632812 26.796875 61.59375 Z M 46.101562 65.847656 C 44.882812 67.300781 43.273438 68.300781 41.511719 68.300781 L 33.484375 68.300781 C 31.722656 68.300781 30.113281 67.300781 28.894531 65.847656 Z M 33.566406 51.925781 C 34.152344 50.683594 34.300781 48.640625 34.21875 47.304688 C 33.953125 42.984375 31.609375 39.082031 28.75 35.953125 L 28.003906 35.136719 L 29.46875 33.472656 L 30.371094 34.109375 C 31.019531 34.5625 31.96875 34.964844 32.726562 35.15625 C 34.140625 35.515625 35.453125 35.351562 36.507812 34.261719 L 37.394531 33.34375 L 38.28125 34.261719 C 39.355469 35.371094 40.738281 35.503906 42.175781 35.152344 C 42.96875 34.957031 43.957031 34.554688 44.644531 34.09375 L 45.550781 33.484375 L 46.984375 35.144531 L 46.246094 35.953125 C 43.378906 39.09375 41.011719 43 40.671875 47.324219 C 40.570312 48.652344 40.679688 50.699219 41.234375 51.953125 L 41.746094 53.070312 L 39.503906 54.097656 L 38.988281 52.976562 C 38.910156 52.8125 38.839844 52.636719 38.777344 52.449219 C 38.234375 50.90625 38.097656 48.8125 38.199219 47.3125 C 38.429688 43.835938 39.777344 40.605469 41.695312 37.742188 C 40.152344 37.917969 38.664062 37.628906 37.394531 36.738281 C 36.183594 37.597656 34.773438 37.902344 33.304688 37.757812 C 35.207031 40.621094 36.519531 43.851562 36.695312 47.332031 C 36.769531 48.824219 36.59375 50.890625 36.03125 52.429688 C 35.957031 52.628906 35.875 52.820312 35.789062 53.003906 L 35.246094 54.113281 L 33.027344 53.03125 Z M 33.566406 51.925781 " fill-opacity="1" fill-rule="evenodd"/><g clip-path="url(#dcb0f32276)"><path fill="#ffffff" d="M 36.574219 2.316406 L 38.421875 2.316406 L 38.421875 8.003906 L 36.574219 8.003906 Z M 36.574219 2.316406 " fill-opacity="1" fill-rule="nonzero"/></g><path fill="#ffffff" d="M 52.847656 6.675781 L 50.003906 11.601562 L 48.40625 10.679688 L 51.25 5.757812 Z M 52.847656 6.675781 " fill-opacity="1" fill-rule="nonzero"/><path fill="#ffffff" d="M 63.164062 17.667969 L 58.238281 20.511719 L 57.3125 18.910156 L 62.238281 16.070312 Z M 63.164062 17.667969 " fill-opacity="1" fill-rule="nonzero"/><g clip-path="url(#ab01c0b60c)"><path fill="#ffffff" d="M 60.914062 30.492188 L 66.597656 30.492188 L 66.597656 32.34375 L 60.914062 32.34375 Z M 60.914062 30.492188 " fill-opacity="1" fill-rule="nonzero"/></g><g clip-path="url(#36138db891)"><path fill="#ffffff" d="M 8.398438 30.492188 L 14.082031 30.492188 L 14.082031 32.34375 L 8.398438 32.34375 Z M 8.398438 30.492188 " fill-opacity="1" fill-rule="nonzero"/></g><path fill="#ffffff" d="M 12.757812 16.070312 L 17.683594 18.910156 L 16.757812 20.511719 L 11.832031 17.667969 Z M 12.757812 16.070312 " fill-opacity="1" fill-rule="nonzero"/><path fill="#ffffff" d="M 23.746094 5.757812 L 26.589844 10.679688 L 24.992188 11.601562 L 22.148438 6.675781 Z M 23.746094 5.757812 " fill-opacity="1" fill-rule="nonzero"/><g clip-path="url(#5f57f276f2)"><path fill="#ffffff" d="M 40.636719 69.535156 L 34.359375 69.535156 C 34.359375 71.269531 35.765625 72.675781 37.5 72.675781 C 39.234375 72.675781 40.636719 71.269531 40.636719 69.535156 Z M 40.636719 69.535156 " fill-opacity="1" fill-rule="evenodd"/></g></svg>