<?xml version="1.0" encoding="utf-8"?>
<svg width="100" zoomAndPan="magnify" viewBox="0 0 75 74.999997" height="100" preserveAspectRatio="xMidYMid meet" version="1.0" xmlns="http://www.w3.org/2000/svg">
  <defs>
    <clipPath id="dcb0f32276">
      <path d="M 36 2.316406 L 39 2.316406 L 39 9 L 36 9 Z M 36 2.316406 " clip-rule="nonzero"/>
    </clipPath>
    <clipPath id="ab01c0b60c">
      <path d="M 60 30 L 66.886719 30 L 66.886719 33 L 60 33 Z M 60 30 " clip-rule="nonzero"/>
    </clipPath>
    <clipPath id="36138db891">
      <path d="M 8.386719 30 L 15 30 L 15 33 L 8.386719 33 Z M 8.386719 30 " clip-rule="nonzero"/>
    </clipPath>
    <clipPath id="5f57f276f2">
      <path d="M 34 69 L 41 69 L 41 72.816406 L 34 72.816406 Z M 34 69 " clip-rule="nonzero"/>
    </clipPath>
  </defs>
  <rect x="-7.5" width="90" y="-7.5" height="89.999996" fill-opacity="1" style="fill: rgb(255, 255, 255);"/>
  <rect x="-6.352" width="90" y="-4.919" height="89.857" fill-opacity="1" style="fill: rgb(255, 255, 255);"/>
  <path d="M 48.463 59.249 C 48.463 59.402 48.459 59.558 48.448 59.714 L 26.694 59.714 C 26.682 59.558 26.678 59.402 26.678 59.249 C 26.678 58.343 26.658 57.495 26.619 56.691 L 48.522 56.691 C 48.483 57.495 48.463 58.343 48.463 59.249 Z M 26.545 55.456 C 25.42 40.386 17.506 43.655 17.506 30.581 C 17.506 19.499 26.487 10.515 37.573 10.515 C 48.655 10.515 57.639 19.499 57.639 30.581 C 57.639 43.655 49.721 40.386 48.596 55.456 L 26.545 55.456 Z M 48.272 60.948 C 48.045 61.987 47.623 63.027 47.057 63.968 L 28.084 63.968 C 27.518 63.027 27.096 61.987 26.869 60.948 L 48.272 60.948 Z M 46.174 65.202 C 44.955 66.655 43.346 67.655 41.584 67.655 L 33.557 67.655 C 31.795 67.655 30.186 66.655 28.967 65.202 L 46.174 65.202 Z M 33.639 51.28 C 34.225 50.038 34.373 47.995 34.291 46.659 C 34.026 42.339 31.682 38.437 28.823 35.308 L 28.076 34.491 L 29.541 32.827 L 30.444 33.464 C 31.092 33.917 32.041 34.32 32.799 34.511 C 34.213 34.87 35.526 34.706 36.58 33.616 L 37.467 32.698 L 38.354 33.616 C 39.428 34.726 40.811 34.859 42.248 34.507 C 43.041 34.312 44.03 33.909 44.717 33.448 L 45.623 32.839 L 47.057 34.499 L 46.319 35.308 C 43.451 38.448 41.084 42.355 40.744 46.679 C 40.643 48.007 40.752 50.054 41.307 51.308 L 41.819 52.425 L 39.576 53.452 L 39.061 52.331 C 38.983 52.167 38.912 51.991 38.85 51.804 C 38.307 50.261 38.17 48.167 38.272 46.667 C 38.502 43.191 39.85 39.96 41.768 37.097 C 40.225 37.273 38.737 36.984 37.467 36.093 C 36.256 36.952 34.846 37.257 33.377 37.112 C 35.28 39.976 36.592 43.206 36.768 46.687 C 36.842 48.179 36.666 50.245 36.104 51.784 C 36.03 51.984 35.948 52.175 35.862 52.359 L 35.319 53.468 L 33.1 52.386 L 33.639 51.28 Z M 33.639 51.28" fill-opacity="1" fill-rule="evenodd" style="fill: rgb(41, 194, 146);"/>
  <g clip-path="url(#dcb0f32276)">
    <path d="M 36.574219 2.316406 L 38.421875 2.316406 L 38.421875 8.003906 L 36.574219 8.003906 Z M 36.574219 2.316406 " fill-opacity="1" fill-rule="nonzero" style="fill: rgb(41, 194, 146);"/>
  </g>
  <path d="M 52.847656 6.675781 L 50.003906 11.601562 L 48.40625 10.679688 L 51.25 5.757812 Z M 52.847656 6.675781 " fill-opacity="1" fill-rule="nonzero" style="fill: rgb(41, 194, 146);"/>
  <path d="M 63.164062 17.667969 L 58.238281 20.511719 L 57.3125 18.910156 L 62.238281 16.070312 Z M 63.164062 17.667969 " fill-opacity="1" fill-rule="nonzero" style="fill: rgb(41, 194, 146);"/>
  <g clip-path="url(#ab01c0b60c)">
    <path d="M 60.914062 30.492188 L 66.597656 30.492188 L 66.597656 32.34375 L 60.914062 32.34375 Z M 60.914062 30.492188 " fill-opacity="1" fill-rule="nonzero" style="fill: rgb(41, 194, 146);"/>
  </g>
  <g clip-path="url(#36138db891)">
    <path d="M 8.398438 30.492188 L 14.082031 30.492188 L 14.082031 32.34375 L 8.398438 32.34375 Z M 8.398438 30.492188 " fill-opacity="1" fill-rule="nonzero" style="fill: rgb(41, 194, 146);"/>
  </g>
  <path d="M 12.757812 16.070312 L 17.683594 18.910156 L 16.757812 20.511719 L 11.832031 17.667969 Z M 12.757812 16.070312 " fill-opacity="1" fill-rule="nonzero" style="fill: rgb(41, 194, 146);"/>
  <path d="M 23.746094 5.757812 L 26.589844 10.679688 L 24.992188 11.601562 L 22.148438 6.675781 Z M 23.746094 5.757812 " fill-opacity="1" fill-rule="nonzero" style="fill: rgb(41, 194, 146);"/>
  <g clip-path="url(#5f57f276f2)">
    <path d="M 40.636719 69.535156 L 34.359375 69.535156 C 34.359375 71.269531 35.765625 72.675781 37.5 72.675781 C 39.234375 72.675781 40.636719 71.269531 40.636719 69.535156 Z M 40.636719 69.535156 " fill-opacity="1" fill-rule="evenodd" style="fill: rgb(41, 194, 146);"/>
  </g>
</svg>