<svg xmlns="http://www.w3.org/2000/svg" xmlns:xlink="http://www.w3.org/1999/xlink" width="100" zoomAndPan="magnify" viewBox="0 0 75 74.999997" height="100" preserveAspectRatio="xMidYMid meet" version="1.0"><defs><clipPath id="efc20a939f"><path d="M 36 4 L 73.0625 4 L 73.0625 69 L 36 69 Z M 36 4 " clip-rule="nonzero"/></clipPath><clipPath id="869b343ef3"><path d="M 1.8125 16 L 39 16 L 39 72 L 1.8125 72 Z M 1.8125 16 " clip-rule="nonzero"/></clipPath><clipPath id="d7c76705cf"><path d="M 48 3.015625 L 60 3.015625 L 60 17 L 48 17 Z M 48 3.015625 " clip-rule="nonzero"/></clipPath></defs><rect x="-7.5" width="90" fill="#ffffff" y="-7.5" height="89.999996" fill-opacity="1"/><rect x="-7.5" width="90" fill="#ffffff" y="-7.5" height="89.999996" fill-opacity="1"/><g clip-path="url(#efc20a939f)"><path fill="#ffffff" d="M 71.691406 52.855469 C 72.59375 53.242188 73.179688 54.132812 73.179688 55.113281 L 73.179688 60.765625 C 73.179688 61.683594 72.574219 62.109375 71.742188 62.109375 C 69.925781 62.109375 67.898438 60.785156 67.320312 58.65625 L 67.027344 57.582031 L 56.269531 53.277344 C 55.335938 52.902344 54.722656 52 54.722656 50.992188 L 54.722656 42.421875 C 54.722656 41.742188 54.167969 41.191406 53.492188 41.191406 C 52.8125 41.191406 52.257812 41.742188 52.257812 42.421875 L 52.257812 51 C 52.257812 53.011719 53.484375 54.824219 55.355469 55.570312 L 63.019531 58.636719 C 63.953125 59.007812 64.566406 59.914062 64.566406 60.921875 L 64.566406 67.277344 C 64.566406 67.960938 64.042969 68.261719 63.308594 68.261719 C 61.667969 68.261719 59.296875 66.871094 58.6875 64.441406 L 58.414062 63.339844 L 49.375 59.59375 C 46.652344 58.46875 44.878906 55.808594 44.878906 52.859375 L 44.878906 25.195312 L 36.597656 8.632812 C 36.371094 8.195312 36.265625 7.722656 36.265625 7.257812 C 36.265625 5.488281 37.746094 4.277344 39.203125 4.277344 C 40.261719 4.277344 41.273438 4.800781 41.835938 5.773438 L 46.882812 14.886719 C 48.316406 17.480469 51.027344 19.042969 53.488281 19.042969 C 56.074219 19.042969 58.71875 18.101562 60.445312 15.734375 L 67.152344 6.550781 C 67.675781 5.871094 68.515625 5.507812 69.269531 5.507812 C 70.621094 5.507812 71.945312 6.59375 71.945312 8.070312 C 71.945312 8.632812 71.816406 9.203125 71.476562 9.699219 L 60.871094 25.886719 L 60.871094 48.195312 L 71.6875 52.855469 Z M 71.691406 52.855469 " fill-opacity="1" fill-rule="nonzero"/></g><g clip-path="url(#869b343ef3)"><path fill="#ffffff" d="M 28.882812 35.039062 C 28.882812 35.039062 35.875 24.3125 38.257812 20.773438 C 38.582031 20.289062 38.726562 19.742188 38.726562 19.203125 C 38.726562 17.785156 37.550781 16.582031 36.007812 16.582031 C 35.296875 16.582031 34.445312 16.953125 33.9375 17.625 C 32.808594 19.109375 30.441406 22.503906 28.589844 25.183594 C 26.875 27.660156 23.960938 28.886719 21.5 28.886719 C 18.808594 28.886719 16.117188 27.621094 14.421875 25.121094 C 12.609375 22.453125 10.171875 19.089844 9.066406 17.621094 C 8.535156 16.910156 7.660156 16.582031 6.863281 16.582031 C 5.648438 16.582031 4.277344 17.640625 4.277344 19.21875 C 4.277344 19.753906 4.425781 20.289062 4.746094 20.769531 C 7.105469 24.304688 14.117188 35.039062 14.117188 35.039062 L 14.117188 51.882812 L 3.300781 56.542969 C 2.398438 56.933594 1.816406 57.820312 1.816406 58.804688 L 1.816406 64.457031 C 1.816406 65.375 2.421875 65.796875 3.25 65.796875 C 5.070312 65.796875 7.097656 64.472656 7.675781 62.34375 L 7.96875 61.269531 L 18.726562 56.96875 C 19.660156 56.59375 20.273438 55.6875 20.273438 54.679688 L 20.273438 47.339844 C 20.273438 46.664062 20.828125 46.109375 21.503906 46.109375 C 22.179688 46.109375 22.734375 46.664062 22.734375 47.339844 L 22.734375 54.6875 C 22.734375 56.699219 21.507812 58.511719 19.640625 59.257812 L 11.976562 62.324219 C 11.042969 62.699219 10.429688 63.601562 10.429688 64.609375 L 10.429688 70.964844 C 10.429688 71.648438 10.949219 71.949219 11.6875 71.949219 C 13.328125 71.949219 15.699219 70.5625 16.308594 68.128906 L 16.582031 67.027344 L 25.621094 63.285156 C 27.597656 62.464844 28.886719 60.53125 28.886719 58.390625 L 28.886719 35.039062 Z M 28.882812 35.039062 " fill-opacity="1" fill-rule="nonzero"/></g><path fill="#ffffff" d="M 6.121094 48.574219 C 5.101562 48.574219 4.273438 47.746094 4.273438 46.726562 L 4.273438 36.886719 C 4.273438 35.867188 5.101562 35.039062 6.121094 35.039062 C 7.136719 35.039062 7.964844 35.867188 7.964844 36.886719 L 7.964844 46.726562 C 7.964844 47.746094 7.136719 48.574219 6.121094 48.574219 Z M 6.121094 48.574219 " fill-opacity="1" fill-rule="nonzero"/><path fill="#ffffff" d="M 34.417969 65.800781 C 33.402344 65.800781 32.574219 64.972656 32.574219 63.957031 L 32.574219 51.652344 C 32.574219 50.632812 33.402344 49.804688 34.417969 49.804688 C 35.4375 49.804688 36.265625 50.632812 36.265625 51.652344 L 36.265625 63.957031 C 36.265625 64.972656 35.4375 65.800781 34.417969 65.800781 Z M 34.417969 65.800781 " fill-opacity="1" fill-rule="nonzero"/><path fill="#ffffff" d="M 40.574219 42.421875 C 39.554688 42.421875 38.726562 41.59375 38.726562 40.574219 L 38.726562 30.734375 C 38.726562 29.714844 39.554688 28.886719 40.574219 28.886719 C 41.589844 28.886719 42.417969 29.714844 42.417969 30.734375 L 42.417969 40.574219 C 42.417969 41.59375 41.589844 42.421875 40.574219 42.421875 Z M 40.574219 42.421875 " fill-opacity="1" fill-rule="nonzero"/><path fill="#ffffff" d="M 66.410156 41.191406 C 65.394531 41.191406 64.566406 40.363281 64.566406 39.347656 L 64.566406 29.503906 C 64.566406 28.484375 65.394531 27.65625 66.410156 27.65625 C 67.429688 27.65625 68.257812 28.484375 68.257812 29.503906 L 68.257812 39.347656 C 68.257812 40.363281 67.429688 41.191406 66.410156 41.191406 Z M 66.410156 41.191406 " fill-opacity="1" fill-rule="nonzero"/><g clip-path="url(#d7c76705cf)"><path fill="#ffffff" d="M 54.109375 16.582031 C 51.050781 16.582031 48.570312 14.101562 48.570312 11.042969 L 48.570312 8.585938 C 48.570312 5.527344 51.050781 3.046875 54.109375 3.046875 C 57.164062 3.046875 59.644531 5.527344 59.644531 8.585938 L 59.644531 11.042969 C 59.644531 14.101562 57.164062 16.582031 54.109375 16.582031 Z M 54.109375 16.582031 " fill-opacity="1" fill-rule="nonzero"/></g><path fill="#ffffff" d="M 20.882812 26.425781 C 17.828125 26.425781 15.347656 23.945312 15.347656 20.886719 L 15.347656 18.425781 C 15.347656 15.367188 17.828125 12.890625 20.882812 12.890625 C 23.941406 12.890625 26.421875 15.367188 26.421875 18.425781 L 26.421875 20.886719 C 26.421875 23.945312 23.941406 26.425781 20.882812 26.425781 Z M 20.882812 26.425781 " fill-opacity="1" fill-rule="nonzero"/></svg>