<svg xmlns="http://www.w3.org/2000/svg" xmlns:xlink="http://www.w3.org/1999/xlink" width="100" zoomAndPan="magnify" viewBox="0 0 75 74.999997" height="100" preserveAspectRatio="xMidYMid meet" version="1.0"><defs><clipPath id="4ed54b29c4"><path d="M 15 1.332031 L 73.332031 1.332031 L 73.332031 60 L 15 60 Z M 15 1.332031 " clip-rule="nonzero"/></clipPath><clipPath id="26bda3cf90"><path d="M 1.332031 41 L 34 41 L 34 73.332031 L 1.332031 73.332031 Z M 1.332031 41 " clip-rule="nonzero"/></clipPath></defs><rect x="-7.5" width="90" fill="#ffffff" y="-7.5" height="89.999996" fill-opacity="1"/><rect x="-7.5" width="90" fill="#ffffff" y="-7.5" height="89.999996" fill-opacity="1"/><g clip-path="url(#4ed54b29c4)"><path fill="#ffffff" d="M 47.601562 59.054688 C 47.230469 59.054688 46.863281 58.914062 46.578125 58.632812 L 16.410156 28.464844 C 16.136719 28.191406 15.988281 27.828125 15.988281 27.445312 C 15.988281 27.0625 16.136719 26.691406 16.410156 26.421875 C 20.710938 22.125 26.425781 19.757812 32.507812 19.757812 C 34.277344 19.757812 36.042969 19.960938 37.761719 20.367188 L 49.710938 3.5625 C 50.773438 2.191406 52.199219 1.402344 53.554688 1.402344 C 54.417969 1.402344 55.207031 1.726562 55.789062 2.316406 L 72.773438 19.503906 C 73.40625 20.140625 73.71875 21.011719 73.648438 21.953125 C 73.554688 23.238281 72.742188 24.566406 71.476562 25.511719 L 54.617188 37.003906 C 56.546875 44.753906 54.300781 52.957031 48.621094 58.628906 C 48.339844 58.914062 47.96875 59.054688 47.601562 59.054688 Z M 47.601562 59.054688 " fill-opacity="1" fill-rule="nonzero"/></g><g clip-path="url(#26bda3cf90)"><path fill="#ffffff" d="M 25.332031 41.46875 L 1.785156 71.246094 C 1.332031 71.824219 1.378906 72.648438 1.898438 73.164062 C 2.179688 73.445312 2.546875 73.585938 2.917969 73.585938 C 3.234375 73.585938 3.550781 73.484375 3.8125 73.273438 L 33.574219 49.707031 Z M 25.332031 41.46875 " fill-opacity="1" fill-rule="nonzero"/></g></svg>