<svg xmlns="http://www.w3.org/2000/svg" xmlns:xlink="http://www.w3.org/1999/xlink" width="100" zoomAndPan="magnify" viewBox="0 0 75 74.999997" height="100" preserveAspectRatio="xMidYMid meet" version="1.0"><defs><clipPath id="a9ebf504a5"><path d="M 13 16 L 62 16 L 62 70.007812 L 13 70.007812 Z M 13 16 " clip-rule="nonzero"/></clipPath><clipPath id="e7a26ecdfd"><path d="M 2.898438 4.757812 L 71.898438 4.757812 L 71.898438 40 L 2.898438 40 Z M 2.898438 4.757812 " clip-rule="nonzero"/></clipPath></defs><rect x="-7.5" width="90" fill="#ffffff" y="-7.5" height="89.999996" fill-opacity="1"/><rect x="-7.5" width="90" fill="#ffffff" y="-7.5" height="89.999996" fill-opacity="1"/><g clip-path="url(#a9ebf504a5)"><path fill="#ffffff" d="M 61.792969 38.042969 Z M 61.792969 38.042969 L 37.503906 16.535156 L 13.203125 38.054688 L 13.203125 68.800781 C 13.203125 69.59375 13.847656 70.230469 14.640625 70.230469 L 29.828125 70.230469 L 29.828125 56.75 C 29.828125 55.957031 30.464844 55.3125 31.257812 55.3125 L 43.738281 55.3125 C 44.53125 55.3125 45.167969 55.957031 45.167969 56.75 L 45.167969 70.230469 L 60.359375 70.230469 C 61.152344 70.230469 61.789062 69.59375 61.789062 68.800781 L 61.789062 38.042969 Z M 13.203125 38.054688 Z M 13.203125 38.054688 " fill-opacity="1" fill-rule="nonzero"/></g><g clip-path="url(#e7a26ecdfd)"><path fill="#ffffff" d="M 37.363281 4.765625 L 2.898438 35.28125 L 6.527344 39.378906 L 37.503906 11.949219 L 68.472656 39.378906 L 72.097656 35.28125 L 37.640625 4.765625 L 37.503906 4.921875 Z M 37.363281 4.765625 " fill-opacity="1" fill-rule="nonzero"/></g><path fill="#ffffff" d="M 13.203125 9.15625 L 21.941406 9.15625 L 21.863281 14.332031 L 13.203125 22.15625 Z M 13.203125 9.15625 " fill-opacity="1" fill-rule="nonzero"/></svg>