<svg xmlns="http://www.w3.org/2000/svg" xmlns:xlink="http://www.w3.org/1999/xlink" width="100" zoomAndPan="magnify" viewBox="0 0 75 74.999997" height="100" preserveAspectRatio="xMidYMid meet" version="1.0"><defs><clipPath id="ce61e0bc82"><path d="M 1.460938 1.460938 L 73.460938 1.460938 L 73.460938 73.460938 L 1.460938 73.460938 Z M 1.460938 1.460938 " clip-rule="nonzero"/></clipPath></defs><rect x="-7.5" width="90" fill="#ffffff" y="-7.5" height="89.999996" fill-opacity="1"/><rect x="-7.5" width="90" fill="#ffffff" y="-7.5" height="89.999996" fill-opacity="1"/><g clip-path="url(#ce61e0bc82)"><path fill="#ffffff" d="M 37.496094 1.460938 C 17.628906 1.460938 1.460938 17.628906 1.460938 37.496094 C 1.460938 57.367188 17.628906 73.53125 37.496094 73.53125 C 57.367188 73.53125 73.53125 57.367188 73.53125 37.496094 C 73.53125 17.628906 57.367188 1.460938 37.496094 1.460938 Z M 17.257812 61.644531 C 17.59375 50.757812 26.53125 42.003906 37.496094 42.003906 C 48.464844 42.003906 57.398438 50.757812 57.734375 61.644531 C 52.253906 66.246094 45.199219 69.027344 37.496094 69.027344 C 29.796875 69.027344 22.742188 66.246094 17.257812 61.644531 Z M 26.238281 26.238281 C 26.238281 20.027344 31.289062 14.976562 37.496094 14.976562 C 43.707031 14.976562 48.757812 20.027344 48.757812 26.238281 C 48.757812 32.445312 43.707031 37.496094 37.496094 37.496094 C 31.289062 37.496094 26.238281 32.445312 26.238281 26.238281 Z M 61.808594 57.554688 C 60.175781 49.132812 54.273438 42.242188 46.449219 39.195312 C 50.558594 36.347656 53.261719 31.605469 53.261719 26.238281 C 53.261719 17.546875 46.1875 10.472656 37.496094 10.472656 C 28.804688 10.472656 21.730469 17.546875 21.730469 26.238281 C 21.730469 31.605469 24.433594 36.347656 28.546875 39.199219 C 20.722656 42.246094 14.816406 49.136719 13.183594 57.554688 C 8.679688 52.101562 5.96875 45.109375 5.96875 37.496094 C 5.96875 20.109375 20.109375 5.96875 37.496094 5.96875 C 54.882812 5.96875 69.027344 20.109375 69.027344 37.496094 C 69.027344 45.109375 66.316406 52.101562 61.808594 57.554688 Z M 61.808594 57.554688 " fill-opacity="1" fill-rule="nonzero"/></g></svg>