<svg xmlns="http://www.w3.org/2000/svg" xmlns:xlink="http://www.w3.org/1999/xlink" width="100" zoomAndPan="magnify" viewBox="0 0 75 74.999997" height="100" preserveAspectRatio="xMidYMid meet" version="1.0"><defs><clipPath id="7d01b97fa2"><path d="M 0.773438 8.117188 L 74 8.117188 L 74 66.617188 L 0.773438 66.617188 Z M 0.773438 8.117188 " clip-rule="nonzero"/></clipPath></defs><rect x="-7.5" width="90" fill="#ffffff" y="-7.5" height="89.999996" fill-opacity="1"/><rect x="-7.5" width="90" fill="#ffffff" y="-7.5" height="89.999996" fill-opacity="1"/><g clip-path="url(#7d01b97fa2)"><path fill="#ffffff" d="M 72.496094 12.511719 C 73.835938 14.820312 74.242188 18.285156 57.132812 28.113281 C 56.648438 28.394531 56.148438 28.675781 55.644531 28.960938 L 47.769531 63.375 L 42.105469 66.628906 L 41.480469 36.476562 C 32.296875 41.078125 28.199219 42.265625 22.203125 44.261719 L 19.664062 58.859375 L 14.632812 61.75 L 13.175781 46.703125 L 0.808594 37.921875 L 5.835938 35.03125 L 19.609375 40.0625 C 24.3125 35.910156 27.410156 32.949219 36.042969 27.3125 L 10.289062 11.808594 L 15.957031 8.550781 L 49.601562 18.898438 C 50.152344 18.570312 50.699219 18.257812 51.234375 17.949219 C 68.34375 8.121094 71.15625 10.203125 72.496094 12.511719 Z M 72.496094 12.511719 " fill-opacity="1" fill-rule="evenodd"/></g></svg>